<svg xmlns="http://www.w3.org/2000/svg" width="306" height="13" viewBox="0 0 612 26"><g><g><g><path fill="#666666" d="M0 0h2v26H0z"/></g><g><path fill="#666666" d="M610 0h2v26h-2z"/></g><g><g><path fill="#666666" d="M0 0h2v14H0z"/></g><g><path fill="#666666" d="M10 0h2v14h-2z"/></g><g><path fill="#666666" d="M20 0h2v14h-2z"/></g><g><path fill="#666666" d="M30 0h2v14h-2z"/></g><g><path fill="#666666" d="M40 0h2v14h-2z"/></g><g><path fill="#666666" d="M50 0h2v14h-2z"/></g><g><path fill="#666666" d="M60 0h2v14h-2z"/></g><g><path fill="#666666" d="M70 0h2v14h-2z"/></g><g><path fill="#666666" d="M80 0h2v14h-2z"/></g><g><path fill="#666666" d="M90 0h2v14h-2z"/></g><g><path fill="#666666" d="M100 0h2v14h-2z"/></g><g><path fill="#666666" d="M110 0h2v14h-2z"/></g><g><path fill="#666666" d="M120 0h2v14h-2z"/></g><g><path fill="#666666" d="M130 0h2v14h-2z"/></g><g><path fill="#666666" d="M140 0h2v14h-2z"/></g><g><path fill="#666666" d="M150 0h2v14h-2z"/></g><g><path fill="#666666" d="M160 0h2v14h-2z"/></g><g><path fill="#666666" d="M170 0h2v14h-2z"/></g><g><path fill="#666666" d="M180 0h2v14h-2z"/></g><g><path fill="#666666" d="M190 0h2v14h-2z"/></g><g><path fill="#666666" d="M200 0h2v14h-2z"/></g><g><path fill="#666666" d="M210 0h2v14h-2z"/></g><g><path fill="#666666" d="M220 0h2v14h-2z"/></g><g><path fill="#666666" d="M230 0h2v14h-2z"/></g><g><path fill="#666666" d="M240 0h2v14h-2z"/></g><g><path fill="#666666" d="M250 0h2v14h-2z"/></g><g><path fill="#666666" d="M260 0h2v14h-2z"/></g><g><path fill="#666666" d="M270 0h2v14h-2z"/></g><g><path fill="#666666" d="M280 0h2v14h-2z"/></g><g><path fill="#666666" d="M290 0h2v14h-2z"/></g><g><path fill="#666666" d="M300 0h2v14h-2z"/></g><g><path fill="#666666" d="M310 0h2v14h-2z"/></g><g><path fill="#666666" d="M320 0h2v14h-2z"/></g><g><path fill="#666666" d="M330 0h2v14h-2z"/></g><g><path fill="#666666" d="M340 0h2v14h-2z"/></g><g><path fill="#666666" d="M350 0h2v14h-2z"/></g><g><path fill="#666666" d="M360 0h2v14h-2z"/></g><g><path fill="#666666" d="M370 0h2v14h-2z"/></g><g><path fill="#666666" d="M380 0h2v14h-2z"/></g><g><path fill="#666666" d="M390 0h2v14h-2z"/></g><g><path fill="#666666" d="M400 0h2v14h-2z"/></g><g><path fill="#666666" d="M410 0h2v14h-2z"/></g><g><path fill="#666666" d="M420 0h2v14h-2z"/></g><g><path fill="#666666" d="M430 0h2v14h-2z"/></g><g><path fill="#666666" d="M440 0h2v14h-2z"/></g><g><path fill="#666666" d="M450 0h2v14h-2z"/></g><g><path fill="#666666" d="M460 0h2v14h-2z"/></g><g><path fill="#666666" d="M470 0h2v14h-2z"/></g><g><path fill="#666666" d="M480 0h2v14h-2z"/></g><g><path fill="#666666" d="M490 0h2v14h-2z"/></g><g><path fill="#666666" d="M500 0h2v14h-2z"/></g><g><path fill="#666666" d="M510 0h2v14h-2z"/></g><g><path fill="#666666" d="M520 0h2v14h-2z"/></g><g><path fill="#666666" d="M530 0h2v14h-2z"/></g><g><path fill="#666666" d="M540 0h2v14h-2z"/></g><g><path fill="#666666" d="M550 0h2v14h-2z"/></g><g><path fill="#666666" d="M560 0h2v14h-2z"/></g><g><path fill="#666666" d="M570 0h2v14h-2z"/></g><g><path fill="#666666" d="M580 0h2v14h-2z"/></g><g><path fill="#666666" d="M590 0h2v14h-2z"/></g><g><path fill="#666666" d="M600 0h2v14h-2z"/></g></g></g></g></svg>