<?xml version="1.0" standalone="no"?><!DOCTYPE svg PUBLIC "-//W3C//DTD SVG 1.1//EN" "http://www.w3.org/Graphics/SVG/1.1/DTD/svg11.dtd"><svg t="1587041131770" class="icon" viewBox="0 0 1024 1024" version="1.1" xmlns="http://www.w3.org/2000/svg" p-id="7999" xmlns:xlink="http://www.w3.org/1999/xlink" width="200" height="200"><defs><style type="text/css"></style></defs><path d="M877.704533 0H146.295467A146.705067 146.705067 0 0 0 0 146.295467v731.409066A146.705067 146.705067 0 0 0 146.295467 1024h731.409066A146.705067 146.705067 0 0 0 1024 877.704533V146.295467A146.705067 146.705067 0 0 0 877.704533 0zM782.677333 212.104533v7.338667h-73.147733l-29.252267 29.252267 7.304534 51.2h-7.304534s-7.338667 29.252267-14.6432 43.861333c-7.304533 7.338667-21.947733 58.538667-124.347733-7.304533 0 0-14.609067 21.947733 7.304533 36.590933V460.8s0 21.947733-29.252266 14.6432v29.252267s58.538667 43.861333 87.790933 153.6v146.261333h-7.338667v51.2s21.947733 29.2864 36.590934 36.590933c7.304533 0 29.252267 0 36.5568 29.252267v7.304533h-138.9568V885.077333c7.304533-14.6432 7.304533-21.947733 7.304533-21.947733v-51.2h-7.304533s-21.947733-51.2-7.304534-102.4c7.304533 0 0-36.590933 0-36.590933h-21.947733l-51.2-65.809067-21.947733-7.338667v-14.609066s-21.947733 7.304533-51.2 95.095466c0 7.304533 0 7.304533-7.304534 7.304534-7.338667 0-36.590933 29.252267-36.590933 43.895466 0 0 0 36.5568-7.304533 43.861334-7.304533 7.338667-14.6432 21.947733-21.947734 51.2 0 7.338667 0 7.338667-14.6432 14.6432-7.304533 0-29.252267 36.5568-14.609066 80.452266h14.609066v29.252267H219.477333v-58.504533s14.609067 7.304533 21.9136-65.8432c0 0-14.609067-21.947733 7.338667-58.504534 0-7.304533 7.304533-29.252267 7.304533-29.252266s7.304533-36.590933 36.5568-58.504534c0-7.338667 7.338667-117.0432 7.338667-117.0432l-7.338667 7.304534v-21.947734h7.338667v-7.304533l-7.338667-7.304533v-29.252267H307.2v-36.590933s-14.6432-7.304533 0-43.861334c7.304533 0 21.947733-7.338667 14.6432-7.338666-7.338667 0-21.947733-7.304533-21.947733-7.304534L307.2 321.8432h36.5568V234.052267s14.6432-51.2 51.2-58.504534h36.590933v-7.304533s-14.6432-73.147733 58.504534-87.790933c7.304533 0 87.790933 7.304533 58.504533 80.452266l-7.304533 7.338667v21.9136s14.6432 7.338667 43.895466-7.304533v-21.947734h7.304534v21.947734h190.190933v-21.947734h14.609067v29.252267h14.6432V204.8h51.2l7.304533-7.304533h36.5568v14.609066H782.677333z" fill="#F8AC33" p-id="8000"></path></svg>