<?xml version="1.0" encoding="UTF-8"?>
<svg width="86px" height="83px" viewBox="0 0 86 83" version="1.1" xmlns="http://www.w3.org/2000/svg" xmlns:xlink="http://www.w3.org/1999/xlink">
    <!-- Generator: Sketch 56.2 (81672) - https://sketch.com -->
    <title>奖励</title>
    <desc>Created with Sketch.</desc>
    <defs>
        <linearGradient x1="50%" y1="0%" x2="50%" y2="100%" id="linearGradient-1">
            <stop stop-color="#FF0022" offset="0%"></stop>
            <stop stop-color="#E52131" stop-opacity="0" offset="100%"></stop>
        </linearGradient>
    </defs>
    <g id="skinsdog-1.1" stroke="none" stroke-width="1" fill="none" fill-rule="evenodd">
        <g id="1-2首页备份" transform="translate(-1112.000000, -416.000000)">
            <g id="5-1登录" transform="translate(579.000000, 320.000000)">
                <g id="登录标题" transform="translate(50.000000, 23.000000)">
                    <g id="编组-2" transform="translate(0.000000, 76.000000)">
                        <g id="奖励" transform="translate(486.000000, 0.000000)">
                            <circle id="椭圆形" stroke="url(#linearGradient-1)" stroke-width="3" fill="#E52131" cx="40" cy="40" r="41.5"></circle>
                            <g id="佣金" transform="translate(25.000000, 22.000000)" fill="#FFFFFF" fill-rule="nonzero">
                                <path d="M30.0318449,24.1737017 L29.9158523,24.1471892 C28.3714939,23.7395581 27.0856333,23.1894219 26.0516423,22.5034086 C24.8652039,21.7113449 21.3854265,19.6599333 19.5361734,19.6599333 C19.4466934,19.6599333 19.3439571,19.6599333 19.2544771,19.6731896 C18.4889261,19.7626696 18.1442624,20.2100696 18.0183276,20.4652532 C17.5709276,21.3202843 18.1078076,22.4039864 18.2238002,22.6194012 C18.2370564,22.6691123 18.2735113,22.7088812 18.3000239,22.7453359 L19.8443822,24.6708128 C19.0423764,24.6211017 17.8791365,24.544878 16.2220996,24.4288854 C11.3736098,24.1107344 7.00234653,20.2962355 5.1762919,18.1023187 C4.27154977,17.0186165 2.94592027,16.2795781 1.8721604,16.2795781 C1.25905677,16.2795781 0.738747183,16.5215055 0.404025712,16.9689054 C-0.0566305376,17.5687528 -0.106341645,18.4602386 0.225065738,19.6201644 C2.59794252,29.9236197 13.1698377,31.8623528 13.2692599,31.8756091 C13.318971,31.8888654 13.3587399,31.8888654 13.408451,31.8888654 L29.8197442,31.8888654 C30.2538878,31.8888654 30.6119407,31.5309454 30.6119407,31.0968017 L30.6119407,24.9392528 C30.6184359,24.5813328 30.3765085,24.2631817 30.0318449,24.1737017 Z M29.0243665,30.3179944 L13.4913029,30.3179944 C12.5865608,30.1522907 3.83740609,28.2533265 1.78599446,19.2755008 C1.78599446,19.2489882 1.77273818,19.2357319 1.77273818,19.2257897 C1.47778562,18.2315676 1.67000188,17.9631276 1.68325819,17.9498713 C1.72302707,17.9001602 1.84896188,17.9001602 1.87547445,17.9001602 C2.38584181,17.9001602 3.30384022,18.3608164 3.95339867,19.149566 C5.94184291,21.5456413 10.7373076,25.6915475 16.1193633,26.0494675 C20.8518606,26.3543622 21.5014191,26.4305859 21.5279317,26.4305859 C21.8460827,26.4802971 22.1642338,26.3145934 22.3199953,26.0362112 C22.4724427,25.7412586 22.4459301,25.399909 22.2437716,25.1447254 L19.6024549,21.8405938 C19.5129749,21.6351212 19.4367512,21.4064502 19.4367512,21.2672591 L19.5394874,21.2672591 C20.5966769,21.2672591 23.3142174,22.5928886 25.1767269,23.8555506 C26.2339164,24.5581343 27.5230911,25.1447253 29.0276805,25.5755549 L29.0276805,30.3179944 L29.0243665,30.3179944 Z" id="形状" stroke="#FFFFFF" stroke-width="0.4"></path>
                                <path d="M3.34029505,15.1826197 C3.41651875,15.6035071 3.82414981,15.8951455 4.25829346,15.8189219 C4.67918083,15.7426982 4.9708193,15.3350671 4.89459563,14.9009234 C4.86808303,14.7617324 4.85482675,14.6059709 4.83162824,14.4667798 C4.39748459,11.3946335 5.21274673,8.3589419 7.12828131,5.9230977 C10.9659787,1.0149545 18.081295,0.159923478 22.979496,3.99762085 C27.5694881,7.60664715 28.6797028,14.0193798 25.541275,18.9440934 C25.2993476,19.3152697 25.4153402,19.7991244 25.7832024,20.0410518 C25.9091372,20.1305318 26.0648986,20.1669866 26.2040897,20.1669866 C26.4725297,20.1669866 26.7277134,20.0410518 26.8801608,19.7958103 C30.4626744,14.1850835 29.2000124,6.85103834 23.9604618,2.74490097 C18.3762476,-1.62636227 10.2667091,-0.642082351 5.87887552,4.94213187 C3.69821499,7.72263973 2.7669603,11.1891608 3.26407134,14.6987649 C3.29058394,14.8644686 3.31709653,15.016916 3.34029505,15.1826197 Z" id="路径" stroke="#FFFFFF" stroke-width="0.4"></path>
                                <path d="M18.8301785,13.2274914 C18.7171538,12.9283971 18.5425169,12.6594713 18.3068507,12.4213096 C18.0708011,12.1831778 17.7706239,11.9633615 17.4059509,11.7619352 C17.0409253,11.560345 16.6038576,11.3559257 16.0944107,11.1481857 C16.0827386,11.1435994 16.0722781,11.1391918 16.0607901,11.1345161 L16.4028397,7.84827561 C16.5582428,7.93170812 16.6906699,8.04169073 16.7973754,8.1808293 C17.0646222,8.52888421 17.1980616,9.01740296 17.1980616,9.64640044 C17.6447307,9.64640044 17.9888356,9.54405675 18.2313731,9.33939916 C18.4732358,9.13496493 18.5945123,8.8617655 18.5945123,8.51963709 C18.5945123,8.28774443 18.5346486,8.06642416 18.4152587,7.85584007 C18.2955161,7.64500285 18.1164466,7.46190697 17.8771606,7.30619506 C17.6382275,7.15048315 17.3424982,7.02683089 16.9905097,6.93507448 C16.8399073,6.89601621 16.6772646,6.86687514 16.5071218,6.84456889 L16.6892895,5.09133947 L15.7575299,5 L15.5701166,6.80329191 C15.103631,6.81629147 14.6727292,6.87065737 14.2827642,6.97182469 C13.8362638,7.08789759 13.4526179,7.25742806 13.1319493,7.48016295 C12.8111887,7.70297229 12.5644332,7.97925408 12.3911921,8.30891899 C12.2183651,8.6387328 12.1320129,9.01741785 12.1320129,9.44466142 C12.1320129,9.85373836 12.1915392,10.2063796 12.3111745,10.5025405 C12.4307331,10.7988056 12.6098946,11.0627728 12.8487664,11.2949037 C13.0878683,11.5269601 13.3914045,11.7421156 13.7593444,11.9404596 C14.1066089,12.1279036 14.5130468,12.3222568 14.9752378,12.522745 L14.5908404,16.2147567 C14.4937517,16.1877599 14.4008657,16.1567723 14.316124,16.1168206 C14.0487851,15.9919175 13.8332729,15.820898 13.6697866,15.6040449 C13.5062237,15.3873855 13.3897634,15.1354499 13.320881,14.8483575 C13.2513239,14.5613991 13.2169364,14.2529981 13.2169364,13.9232587 C13.1036356,13.9232587 12.9762854,13.9432271 12.8349317,13.982881 C12.6933326,14.02252 12.5612429,14.0914639 12.4386014,14.1888788 C12.3160519,14.2866213 12.2120152,14.4195206 12.1271969,14.5872195 C12.0425472,14.755246 12,14.9644304 12,15.2145344 C12,15.5444524 12.0754009,15.8327212 12.2264175,16.0800108 C12.377204,16.3274643 12.5911057,16.5349958 12.8679541,16.7030223 C13.144373,16.8708552 13.4793825,16.9959221 13.8724458,17.0785505 C14.06739,17.1193212 14.2740062,17.1499662 14.4912517,17.1706494 L14.310541,18.9085712 L15.2419632,19 L15.4299746,17.1954573 C15.9070894,17.1802986 16.3484516,17.1233268 16.7496593,17.0190771 C17.2184456,16.8968692 17.6193159,16.7121652 17.9526076,16.4648606 C18.2858992,16.2174072 18.5437286,15.9106442 18.7262185,15.5444524 C18.9085549,15.1780671 19,14.7507491 19,14.2619623 C19.000168,13.8716327 18.9435559,13.5267346 18.8301785,13.2274914 Z M14.9955758,10.6857257 C14.6903371,10.5484038 14.4419405,10.4063466 14.2500945,10.2598967 C14.0581412,10.1132681 13.918352,9.95313369 13.8303587,9.77903179 C13.7421813,9.60509368 13.6982844,9.39893213 13.6982844,9.16085983 C13.6982844,8.94104352 13.7326719,8.7396172 13.8020603,8.55652132 C13.8712648,8.3733361 13.9798415,8.21454182 14.1276984,8.08024272 C14.2752179,7.94601807 14.4656221,7.84218531 14.6982361,7.76865511 C14.9169386,7.69978568 15.1789552,7.66465855 15.4812798,7.66048916 L15.1589547,10.7581689 C15.1033089,10.7336886 15.0473718,10.7092679 14.9955758,10.6857257 Z M17.2925582,15.2928296 C17.1980463,15.5033243 17.061524,15.6835017 16.8820711,15.8330488 C16.7030016,15.9828938 16.4812008,16.0988327 16.2172056,16.1810888 C16.0112028,16.2453719 15.7792944,16.2838346 15.5235202,16.2980254 L15.8751867,12.9184054 C15.9969539,12.9746922 16.1132456,13.0294899 16.2172056,13.081116 C16.5251284,13.2338199 16.7692151,13.3833671 16.9482846,13.5297426 C17.1277069,13.6763116 17.2532626,13.8335126 17.3253198,14.0015539 C17.3976992,14.1694018 17.433897,14.3695773 17.433897,14.6013806 C17.4340652,14.8518419 17.3869013,15.0821413 17.2925582,15.2928296 Z" id="形状"></path>
                            </g>
                        </g>
                    </g>
                </g>
            </g>
        </g>
    </g>
</svg>