<?xml version="1.0" encoding="UTF-8"?>
<svg width="86px" height="83px" viewBox="0 0 86 83" version="1.1" xmlns="http://www.w3.org/2000/svg" xmlns:xlink="http://www.w3.org/1999/xlink">
    <!-- Generator: Sketch 56.2 (81672) - https://sketch.com -->
    <title>分享</title>
    <desc>Created with Sketch.</desc>
    <defs>
        <linearGradient x1="50%" y1="0%" x2="50%" y2="100%" id="linearGradient-1">
            <stop stop-color="#FF0022" offset="0%"></stop>
            <stop stop-color="#E52131" stop-opacity="0" offset="100%"></stop>
        </linearGradient>
    </defs>
    <g id="skinsdog-1.1" stroke="none" stroke-width="1" fill="none" fill-rule="evenodd">
        <g id="1-2首页备份" transform="translate(-667.000000, -416.000000)">
            <g id="5-1登录" transform="translate(579.000000, 320.000000)">
                <g id="登录标题" transform="translate(50.000000, 23.000000)">
                    <g id="编组-2" transform="translate(0.000000, 76.000000)">
                        <g id="分享" transform="translate(41.000000, 0.000000)">
                            <circle id="椭圆形" stroke="url(#linearGradient-1)" stroke-width="3" fill="#E52131" cx="40" cy="40" r="41.5"></circle>
                            <g id="分享-(2)" transform="translate(24.000000, 22.000000)" fill="#FFFFFF" fill-rule="nonzero">
                                <g id="分-享">
                                    <path d="M16.0356429,-1.13686838e-13 C16.7856429,-1.13686838e-13 17.3963571,0.607142857 17.3963571,1.36071429 C17.3963571,2.11428571 16.7892143,2.72142857 16.0356429,2.72142857 C8.69992857,2.72142857 2.7535,8.66785714 2.7535,16.0035714 C2.7535,23.3392857 8.69992857,29.2821429 16.0356429,29.2821429 C23.3713571,29.2821429 29.3177857,23.3357143 29.3177857,16 C29.3177857,15.25 29.9249286,14.6392857 30.6785,14.6392857 C31.4320714,14.6392857 32.0356429,15.25 32.0356429,16 C32.0356429,24.8357143 24.8713571,32 16.0356429,32 C7.19992857,32 0.0356428571,24.8357143 0.0356428571,16 C0.0356428571,7.16428571 7.19992857,-1.13686838e-13 16.0356429,-1.13686838e-13 Z M24.2713571,6.80357143 C23.7642143,6.27857143 23.7713571,5.44642857 24.2892143,4.93214286 C24.8070714,4.41428571 25.6392143,4.41071429 26.1713571,4.925 L28.5142143,7.26785714 C29.2213571,7.975 29.2213571,9.11785714 28.5142143,9.825 L26.1713571,12.1678571 C25.6499286,12.6892857 24.8035,12.6892857 24.2820714,12.1678571 C23.7606429,11.6464286 23.7606429,10.8 24.2820714,10.2785714 L24.6785,9.88214286 L22.9535,9.88214286 C18.2642143,9.88214286 16.6713571,11.8785714 16.6713571,17.9178571 C16.6713571,18.6571429 16.0749286,19.2535714 15.3356429,19.2535714 C14.5963571,19.2535714 13.9999286,18.6571429 13.9999286,17.9178571 C13.9999286,10.45 16.7249286,7.21071429 22.9535,7.21071429 L24.6785,7.21071429 L24.2713571,6.80357143 L24.2713571,6.80357143 Z" id="形状"></path>
                                </g>
                            </g>
                        </g>
                    </g>
                </g>
            </g>
        </g>
    </g>
</svg>