<?xml version="1.0" encoding="UTF-8"?>
<svg width="86px" height="83px" viewBox="0 0 86 83" version="1.1" xmlns="http://www.w3.org/2000/svg" xmlns:xlink="http://www.w3.org/1999/xlink">
    <!-- Generator: Sketch 56.2 (81672) - https://sketch.com -->
    <title>充值成功</title>
    <desc>Created with Sketch.</desc>
    <defs>
        <linearGradient x1="50%" y1="0%" x2="50%" y2="100%" id="linearGradient-1">
            <stop stop-color="#FF0022" offset="0%"></stop>
            <stop stop-color="#E52131" stop-opacity="0" offset="100%"></stop>
        </linearGradient>
    </defs>
    <g id="skinsdog-1.1" stroke="none" stroke-width="1" fill="none" fill-rule="evenodd">
        <g id="1-2首页备份" transform="translate(-893.000000, -416.000000)">
            <g id="5-1登录" transform="translate(579.000000, 320.000000)">
                <g id="登录标题" transform="translate(50.000000, 23.000000)">
                    <g id="编组-2" transform="translate(0.000000, 76.000000)">
                        <g id="充值成功" transform="translate(267.000000, 0.000000)">
                            <circle id="椭圆形" stroke="url(#linearGradient-1)" stroke-width="3" fill="#E52131" cx="40" cy="40" r="41.5"></circle>
                            <g id="充值" transform="translate(23.000000, 19.000000)" fill="#FFFFFF" fill-rule="nonzero">
                                <path d="M24.4593426,3.55412618 C23.1523621,1.43408499 20.8162031,0.0133625581 18.1484048,0.0133625581 C15.5806362,0.0133625581 13.3141705,1.32685534 11.983042,3.31624701 C5.18344262,4.55672976 0.00879151553,10.5098578 0.00879151553,17.6628177 L0.00879151553,19.2804447 C0.00879151553,27.3312054 6.55845798,33.8801842 14.6083692,33.8801842 L20.800954,33.8801842 C28.8515124,33.8801842 35.4012193,27.3312054 35.4012193,19.2804447 L35.4012193,17.6628177 C35.4012193,10.8783057 30.7415214,5.18222952 24.4593426,3.55412618 Z M18.1482025,2.07325641 C21.1020141,2.07325641 23.5046709,4.47591311 23.5046709,7.42960339 C23.5046709,7.975055 23.4197689,8.49967548 23.2661849,8.99452568 L13.0305437,8.99452568 C12.8783755,8.49967548 12.7918555,7.975055 12.7918555,7.42960339 C12.7918555,4.47595359 15.1945122,2.07325641 18.1482025,2.07325641 Z M33.3412849,19.2804447 C33.3412849,26.1953231 27.715711,31.8217465 20.8009944,31.8217465 L14.6083692,31.8217465 C7.69332901,31.8217465 2.06795731,26.1953231 2.06795731,19.2804447 L2.06795731,17.6628177 C2.06795731,12.0196081 5.81606132,7.23977733 10.9529737,5.67089101 C10.8145176,6.2363243 10.7327302,6.82262919 10.7327302,7.42960339 C10.7327302,7.96692482 10.7944146,8.48919926 10.9033431,8.99452568 L9.86219188,8.99452568 C9.32078516,8.99452568 8.8819565,9.43355657 8.88195646,9.97492289 C8.88195642,10.5162892 9.32082556,10.9560482 9.86219188,10.9560482 L26.2012283,10.9560482 C26.743444,10.9560482 27.1816255,10.5163296 27.1816255,9.97492289 C27.1816254,9.43351618 26.743444,8.99452568 26.2012283,8.99452568 L25.3948821,8.99452568 C25.5037298,8.48919926 25.5646456,7.96692478 25.5646456,7.42960339 C25.5646456,6.94907203 25.515015,6.47974503 25.4268771,6.02404921 C30.0559957,7.86928146 33.3412849,12.3831616 33.3412849,17.6627772 L33.3412849,19.2804447 L33.3412849,19.2804447 Z" id="形状" stroke="#FFFFFF" stroke-width="0.4"></path>
                                <g id="美元-(1)" transform="translate(14.875000, 13.812500)">
                                    <path d="M7.570355,9.392942 C7.445082,9.05148 7.25152,8.74446 6.990315,8.472562 C6.728685,8.200698 6.395978,7.949744 5.991786,7.719785 C5.587203,7.489639 5.102771,7.256263 4.538116,7.019096 C4.525179,7.01386 4.513585,7.008828 4.500852,7.00349 L4.879969,3.251743 C5.052213,3.346994 5.198991,3.472556 5.31726,3.631404 C5.613468,4.028762 5.761368,4.586481 5.761368,5.304578 C6.256442,5.304578 6.637837,5.187737 6.906658,4.954089 C7.174731,4.720696 7.30915,4.408797 7.30915,4.018205 C7.30915,3.753464 7.242799,3.500793 7.110471,3.260379 C6.977752,3.019676 6.779277,2.810644 6.51406,2.632875 C6.249234,2.455106 5.921457,2.313938 5.531324,2.209184 C5.364401,2.164593 5.184133,2.131324 4.995552,2.105858 L5.197461,0.104278 L4.164728,-2.66453526e-15 L3.957005,2.058734 C3.439967,2.073575 2.962369,2.135642 2.530144,2.25114 C2.035257,2.383655 1.610036,2.5772 1.254617,2.831486 C0.899096,3.085857 0.6256,3.401275 0.433585,3.777638 C0.242029,4.154171 0.146319,4.586498 0.146319,5.074262 C0.146319,5.541286 0.212296,5.94388 0.344896,6.281993 C0.477411,6.620225 0.675988,6.921584 0.940746,7.186597 C1.205759,7.451525 1.542189,7.697158 1.950002,7.923598 C2.334899,8.137594 2.785382,8.359478 3.29766,8.588366 L2.871606,12.803363 C2.763996,12.772542 2.661044,12.737165 2.567119,12.691554 C2.270809,12.548958 2.031942,12.353713 1.850739,12.106142 C1.669451,11.858792 1.54037,11.571169 1.464023,11.243409 C1.386928,10.915802 1.348814,10.563715 1.348814,10.187267 C1.223235,10.187267 1.082084,10.210064 0.925412,10.255335 C0.768468,10.300589 0.622064,10.379299 0.486132,10.490513 C0.350302,10.602101 0.234991,10.753826 0.140981,10.94528 C0.047158,11.137108 1.34114941e-13,11.375924 1.34114941e-13,11.661456 C1.34114941e-13,12.038108 0.083572,12.367211 0.250954,12.64953 C0.418081,12.932036 0.655163,13.168965 0.962013,13.360793 C1.268387,13.5524 1.639701,13.695183 2.07536,13.789516 C2.29143,13.836062 2.520437,13.871048 2.761225,13.894661 L2.560931,15.878765 L3.59329,15.983145 L3.801676,13.922983 C4.330495,13.905677 4.819687,13.840635 5.264373,13.721618 C5.783961,13.582099 6.228273,13.371231 6.597683,13.088895 C6.967093,12.806389 7.252863,12.456172 7.455129,12.038108 C7.657225,11.619823 7.75857942,11.131974 7.75857942,10.573949 C7.758766,10.128328 7.696019,9.734574 7.570355,9.392942 Z M3.320202,6.491127 C2.981885,6.334353 2.70657,6.172173 2.493934,6.004978 C2.281179,5.837579 2.126241,5.654761 2.028712,5.455997 C1.930979,5.25742 1.882325,5.022055 1.882325,4.750259 C1.882325,4.499305 1.920439,4.269346 1.997347,4.060314 C2.074051,3.85118 2.194394,3.669892 2.358274,3.516569 C2.52178,3.363331 2.732818,3.24479 2.99064,3.160844 C3.233043,3.082219 3.523454,3.042116 3.858541,3.037356 L3.501286,6.573832 C3.43961,6.545884 3.377611,6.518004 3.320202,6.491127 Z M5.866105,11.750842 C5.761351,11.991154 5.610034,12.196854 5.411134,12.367585 C5.212659,12.538656 4.966822,12.671018 4.674218,12.764926 C4.445891,12.838315 4.188851,12.882226 3.905359,12.898427 L4.295135,9.040073 C4.430098,9.104333 4.558992,9.166893 4.674218,9.225832 C5.01551,9.400167 5.286048,9.570898 5.484523,9.738008 C5.683389,9.905339 5.822551,10.084808 5.902417,10.276653 C5.98264,10.468277 6.0227605,10.696808 6.0227605,10.961447 C6.022947,11.247387 5.970672,11.510309 5.866105,11.750842 Z" id="形状"></path>
                                </g>
                            </g>
                        </g>
                    </g>
                </g>
            </g>
        </g>
    </g>
</svg>